<?xml version="1.0" encoding="utf-8"?>
<!-- Generator: Adobe Illustrator 25.2.3, SVG Export Plug-In . SVG Version: 6.00 Build 0)  -->
<svg version="1.1" xmlns="http://www.w3.org/2000/svg" xmlns:xlink="http://www.w3.org/1999/xlink" x="0px" y="0px"
	 viewBox="0 0 425.2 425.2" style="enable-background:new 0 0 425.2 425.2;" xml:space="preserve">
<style type="text/css">
	.st0{fill:#1D1D1B;}
</style>
<g id="Rahmen">
</g>
<g id="Icon">
	<g>
		<path class="st0" d="M239,129.1c20.9-0.2,35.2,11.5,40.7,31.6c3.1,11.4,6.8,22.9,12.1,33.4c7.2,14.2,19.8,22.5,35.7,25.2
			c3.1,0.5,6.3,1.1,9.4,1.9c21,5.5,34.5,22.2,33.3,41c-1.3,20.7-16.4,36.2-38.5,38.9c-9.5,1.2-18.9,2.2-27.2,7.9
			c-15.5,10.6-23.4,25.8-26.7,43.7c-1.8,9.6-6.4,18.8-13.4,25.6c-12.5,12-29.6,14.9-45.3,7.2c-14.2-7-23.7-22.9-22.5-37.7
			c1.4-17.1,12.9-31.7,28.6-36.2c6.9-2,13.9-3.6,20.8-5.4c11.5-3,21.1-9.5,29.2-18c18.5-19.5,15.5-51.5-7.1-66.1
			c-10.3-6.6-22.6-10.5-34.5-13.7c-13.7-3.6-23.5-11.3-29.7-23.7C190.5,158.4,211.9,128.7,239,129.1z"/>
		<path class="st0" d="M55,164.5c0.2-21.6,14.2-39.4,34.8-39.4c28-0.1,52.2-25.8,56.5-52.6c2.1-13,7.3-24.4,19.6-31.2
			c15.5-8.6,30.9-7.5,45,2.5c12,8.5,16.7,21.5,14.9,35.7c-2.1,16.7-11.6,28.5-28.1,33.8c-8.7,2.8-17.9,4.2-26.3,7.6
			c-17,6.7-30,17.6-34.7,36.5c-4.4,17.5,2.5,30.8,14.2,41.9c9.7,9.2,22.4,14.6,35.5,17.2c9.3,1.8,17.7,5.3,24.5,12.1
			c14.4,14.4,16.1,35.5,3.9,52.2c-10.9,14.8-33.6,19.4-50.6,10.5c-12.3-6.5-18.5-17.2-20.8-30.3c-2.9-16.1-8.9-30.2-21-41.9
			c-8.4-8.2-17.9-12.9-29.4-14.4c-9.7-1.3-18.5-4.4-25.7-11.4C59.1,184.9,54.2,175.4,55,164.5z"/>
	</g>
</g>
</svg>
